<svg id="linkedin_2_" data-name="linkedin (2)" xmlns="http://www.w3.org/2000/svg" width="38.755" height="38.755" viewBox="0 0 38.755 38.755">
  <path id="Path_41" data-name="Path 41" d="M33.526,34.1v0h.01V19.884c0-6.953-1.5-12.31-9.626-12.31a8.439,8.439,0,0,0-7.6,4.177H16.2V8.223H8.489V34.1h8.026V21.285c0-3.373.639-6.635,4.817-6.635,4.116,0,4.177,3.85,4.177,6.852V34.1Z" transform="translate(5.219 4.656)" fill="#0a0b0e"/>
  <path id="Path_42" data-name="Path 42" d="M.4,7.977H8.431V33.851H.4Z" transform="translate(0.243 4.904)" fill="#0a0b0e"/>
  <path id="Path_43" data-name="Path 43" d="M4.654,0A4.676,4.676,0,1,0,9.308,4.654,4.655,4.655,0,0,0,4.654,0Z" fill="#0a0b0e"/>
</svg>
