<svg xmlns="http://www.w3.org/2000/svg" width="39" height="31.633" viewBox="0 0 39 31.633">
  <path id="Path_39" data-name="Path 39" d="M50.35,33.633c14.733,0,22.75-12.133,22.75-22.75V9.8A17.612,17.612,0,0,0,77,5.683a17.986,17.986,0,0,1-4.55,1.3A8.43,8.43,0,0,0,75.917,2.65,19.874,19.874,0,0,1,70.933,4.6,7.738,7.738,0,0,0,65.083,2a8.14,8.14,0,0,0-8.017,8.017,4.224,4.224,0,0,0,.217,1.733A22.4,22.4,0,0,1,40.817,3.3a8.3,8.3,0,0,0-1.083,4.117A8.608,8.608,0,0,0,43.2,14.133a7.3,7.3,0,0,1-3.683-1.083h0a7.918,7.918,0,0,0,6.5,7.8,6.68,6.68,0,0,1-2.167.217,3.687,3.687,0,0,1-1.517-.217,8.208,8.208,0,0,0,7.583,5.633A16.359,16.359,0,0,1,39.95,29.95,6,6,0,0,1,38,29.733a20.451,20.451,0,0,0,12.35,3.9" transform="translate(-38 -2)" fill="#0a0b0e" fill-rule="evenodd"/>
</svg>
