<svg xmlns="http://www.w3.org/2000/svg" width="40.701" height="40.897" viewBox="0 0 40.701 40.897">
  <path id="whatsapp_2_" data-name="whatsapp (2)" d="M35.021,5.943A20.27,20.27,0,0,0,3.125,30.4L.25,40.9l10.743-2.818a20.244,20.244,0,0,0,9.684,2.467h.008a20.274,20.274,0,0,0,14.335-34.6ZM20.686,37.123h-.007a16.823,16.823,0,0,1-8.573-2.348l-.615-.365L5.116,36.083l1.7-6.216-.4-.637a16.844,16.844,0,1,1,14.269,7.894Zm9.239-12.615c-.506-.254-3-1.478-3.46-1.647s-.8-.253-1.139.254-1.308,1.647-1.6,1.985-.591.38-1.1.127a13.831,13.831,0,0,1-4.072-2.513A15.274,15.274,0,0,1,15.736,19.2c-.3-.507,0-.755.222-1.033a14.324,14.324,0,0,0,1.266-1.732.931.931,0,0,0-.042-.887c-.126-.253-1.139-2.746-1.561-3.76-.411-.987-.828-.854-1.139-.869-.3-.015-.633-.018-.971-.018a1.86,1.86,0,0,0-1.35.634,5.679,5.679,0,0,0-1.772,4.224A9.85,9.85,0,0,0,12.456,21c.253.338,3.571,5.453,8.65,7.646a28.984,28.984,0,0,0,2.887,1.067,6.942,6.942,0,0,0,3.189.2c.973-.146,3-1.225,3.418-2.408a4.231,4.231,0,0,0,.3-2.408C30.769,24.888,30.431,24.761,29.925,24.508Zm0,0" transform="translate(-0.25)" fill="#f2f0e9" fill-rule="evenodd"/>
</svg>
